<svg width="261" height="138" viewBox="0 0 261 138" fill="none" xmlns="http://www.w3.org/2000/svg">
<g id="&#208;&#147;&#208;&#162;&#208;&#163;-8  &#208;&#184; &#209;&#130;&#208;&#181;&#209;&#133;&#208;&#189;&#208;&#190;&#208;&#187;&#208;&#190;&#208;&#179;&#208;&#184;&#209;&#143; &#208;&#144;&#208;&#179;&#209;&#128;&#208;&#181;&#208;&#179;&#208;&#176;&#209;&#130;&#208;&#176; &#226;&#132;&#150;8">
<rect width="261" height="138" fill="white"/>
<rect id="Rectangle 93" x="5.5" y="5.5" width="250" height="127" fill="#B5D0DF" stroke="black"/>
<rect id="Rectangle 90" x="8.5" y="23.5" width="244" height="106" fill="#D9D9D9" stroke="black"/>
<g id="button_tech" filter="url(#filter0_dd_7_21)">
<rect id="Rectangle 190" x="11.5" y="95.5" width="129" height="15" rx="2.5" fill="white" stroke="black"/>
<text id="&#208;&#160;&#208;&#176;&#208;&#183;&#208;&#177;&#208;&#187;&#208;&#190;&#208;&#186; &#209;&#130;&#208;&#181;&#209;&#133;&#208;&#189;&#208;&#190;&#208;&#187;&#208;&#190;&#208;&#179;&#208;&#184;&#208;&#184;" fill="black" xml:space="preserve" style="white-space: pre" font-family="Inter" font-size="9" font-weight="500" letter-spacing="0em"><tspan x="30.9385" y="106.273">&#x420;&#x430;&#x437;&#x431;&#x43b;&#x43e;&#x43a; &#x442;&#x435;&#x445;&#x43d;&#x43e;&#x43b;&#x43e;&#x433;&#x438;&#x438;</tspan></text>
</g>
<g id="button_signalization" filter="url(#filter1_dd_7_21)">
<rect id="Rectangle 190_2" x="11.5" y="61.5" width="129" height="23" rx="2.5" fill="white" stroke="black"/>
<text id="&#208;&#154;&#208;&#178;&#208;&#184;&#209;&#130;&#208;&#176;&#209;&#134;&#208;&#184;&#209;&#143; &#209;&#129;&#208;&#184;&#208;&#179;&#208;&#189;&#208;&#176;&#208;&#187;&#208;&#184;&#208;&#183;&#208;&#176;&#209;&#134;&#208;&#184;&#208;&#184; &#208;&#178; &#208;&#188;&#208;&#176;&#209;&#136;. &#208;&#183;&#208;&#176;&#208;&#187;&#208;&#181;" fill="black" xml:space="preserve" style="white-space: pre" font-family="Inter" font-size="9" font-weight="500" letter-spacing="0em"><tspan x="18.8887" y="70.7727">&#x41a;&#x432;&#x438;&#x442;&#x430;&#x446;&#x438;&#x44f; &#x441;&#x438;&#x433;&#x43d;&#x430;&#x43b;&#x438;&#x437;&#x430;&#x446;&#x438;&#x438; &#x432; </tspan><tspan x="53.7329" y="81.7727">&#x43c;&#x430;&#x448;. &#x437;&#x430;&#x43b;&#x435;</tspan></text>
</g>
<g id="button_deformation" filter="url(#filter2_d_7_21)">
<rect id="Rectangle 190_3" x="11.5" y="35.5" width="129" height="15" rx="2.5" fill="white" stroke="black"/>
<text id="&#208;&#154;&#208;&#178;&#208;&#184;&#209;&#130;&#208;&#176;&#209;&#134;&#208;&#184;&#209;&#143; &#208;&#189;&#208;&#176;&#209;&#128;&#209;&#131;&#209;&#136;&#208;&#181;&#208;&#189;&#208;&#184;&#209;&#143; &#208;&#147;&#208;&#162;&#208;&#163;-8" fill="black" xml:space="preserve" style="white-space: pre" font-family="Inter" font-size="9" font-weight="500" letter-spacing="0em"><tspan x="14.7314" y="46.2727">&#x41a;&#x432;&#x438;&#x442;&#x430;&#x446;&#x438;&#x44f; &#x43d;&#x430;&#x440;&#x443;&#x448;&#x435;&#x43d;&#x438;&#x44f; &#x413;&#x422;&#x423;-8</tspan></text>
</g>
<text id="&#208;&#158;&#209;&#129;&#208;&#189;&#208;&#190;&#208;&#178; &#208;&#147;&#208;&#162;&#208;&#163;-8" fill="black" xml:space="preserve" style="white-space: pre" font-family="Inter" font-size="9" font-weight="500" letter-spacing="0em"><tspan x="168.853" y="44.2727">&#x41e;&#x441;&#x43d;&#x43e;&#x432; &#x413;&#x422;&#x423;-8</tspan></text>
<text id="&#208;&#158;&#209;&#129;&#208;&#189;&#208;&#190;&#208;&#178; &#209;&#130;&#208;&#181;&#209;&#133;&#208;&#189;&#208;&#190;&#208;&#187;&#208;&#190;&#208;&#179;&#208;&#184;&#208;&#184;" fill="black" xml:space="preserve" style="white-space: pre" font-family="Inter" font-size="9" font-weight="500" letter-spacing="0em"><tspan x="156.289" y="86.2727">&#x41e;&#x441;&#x43d;&#x43e;&#x432; &#x442;&#x435;&#x445;&#x43d;&#x43e;&#x43b;&#x43e;&#x433;&#x438;&#x438;</tspan></text>
<g id="button">
<g id="Group 16">
<g id="Union">
<mask id="path-11-inside-1_7_21" fill="white">
<path d="M216 107.5C216 109.433 207.717 111 197.5 111C187.283 111 179 109.433 179 107.5V98.5H216V107.5Z"/>
</mask>
<path d="M216 107.5C216 109.433 207.717 111 197.5 111C187.283 111 179 109.433 179 107.5V98.5H216V107.5Z" fill="#D9D9D9"/>
<path d="M216 107.5C216 109.433 207.717 111 197.5 111C187.283 111 179 109.433 179 107.5V98.5H216V107.5Z" fill="url(#paint0_linear_7_21)"/>
<path d="M179 98.5V97.5H178V98.5H179ZM216 98.5H217V97.5H216V98.5ZM216 107.5H215C215 107.357 215.081 107.346 214.945 107.471C214.811 107.595 214.557 107.762 214.138 107.95C213.306 108.322 212.039 108.681 210.396 108.992C207.126 109.611 202.566 110 197.5 110V111V112C202.651 112 207.342 111.606 210.767 110.957C212.472 110.635 213.914 110.24 214.954 109.775C215.471 109.544 215.944 109.271 216.303 108.94C216.661 108.609 217 108.127 217 107.5H216ZM197.5 111V110C192.434 110 187.874 109.611 184.604 108.992C182.961 108.681 181.694 108.322 180.862 107.95C180.443 107.762 180.189 107.595 180.055 107.471C179.919 107.346 180 107.357 180 107.5H179H178C178 108.127 178.339 108.609 178.697 108.94C179.056 109.271 179.529 109.544 180.046 109.775C181.086 110.24 182.528 110.635 184.233 110.957C187.658 111.606 192.349 112 197.5 112V111ZM179 107.5H180V98.5H179H178V107.5H179ZM179 98.5V99.5H216V98.5V97.5H179V98.5ZM216 98.5H215V107.5H216H217V98.5H216Z" fill="black" mask="url(#path-11-inside-1_7_21)"/>
</g>
<path id="Ellipse 22" d="M197.5 95.5C202.587 95.5 207.179 95.8906 210.488 96.5166C212.147 96.8303 213.458 97.1983 214.342 97.5938C214.786 97.7922 215.095 97.9862 215.285 98.1621C215.476 98.3384 215.5 98.4509 215.5 98.5C215.5 98.5491 215.476 98.6616 215.285 98.8379C215.095 99.0138 214.786 99.2078 214.342 99.4062C213.458 99.8017 212.147 100.17 210.488 100.483C207.179 101.109 202.587 101.5 197.5 101.5C192.413 101.5 187.821 101.109 184.512 100.483C182.853 100.17 181.542 99.8017 180.658 99.4062C180.214 99.2078 179.905 99.0138 179.715 98.8379C179.524 98.6616 179.5 98.5491 179.5 98.5C179.5 98.4509 179.524 98.3384 179.715 98.1621C179.905 97.9862 180.214 97.7922 180.658 97.5938C181.542 97.1983 182.853 96.8303 184.512 96.5166C187.821 95.8906 192.413 95.5 197.5 95.5Z" fill="#D9D9D9" stroke="black"/>
</g>
<g id="Group 17">
<g id="Union_2">
<mask id="path-14-inside-2_7_21" fill="white">
<path d="M208 97.5C208 98.8807 203.299 100 197.5 100C191.701 100 187 98.8807 187 97.5V92H208V97.5Z"/>
</mask>
<path d="M208 97.5C208 98.8807 203.299 100 197.5 100C191.701 100 187 98.8807 187 97.5V92H208V97.5Z" fill="#D9D9D9"/>
<path d="M208 97.5C208 98.8807 203.299 100 197.5 100C191.701 100 187 98.8807 187 97.5V92H208V97.5Z" fill="url(#paint1_linear_7_21)"/>
<path d="M187 92V91H186V92H187ZM208 92H209V91H208V92ZM208 97.5H207C207 97.2492 207.181 97.3223 206.684 97.6017C206.27 97.8352 205.603 98.0783 204.693 98.295C202.889 98.7245 200.345 99 197.5 99V100V101C200.454 101 203.16 100.716 205.156 100.241C206.146 100.005 207.018 99.7092 207.665 99.3445C208.232 99.0257 209 98.4411 209 97.5H208ZM197.5 100V99C194.655 99 192.111 98.7245 190.307 98.295C189.397 98.0783 188.73 97.8352 188.316 97.6017C187.819 97.3223 188 97.2492 188 97.5H187H186C186 98.4411 186.768 99.0257 187.335 99.3445C187.982 99.7092 188.854 100.005 189.844 100.241C191.84 100.716 194.546 101 197.5 101V100ZM187 97.5H188V92H187H186V97.5H187ZM187 92V93H208V92V91H187V92ZM208 92H207V97.5H208H209V92H208Z" fill="black" mask="url(#path-14-inside-2_7_21)"/>
</g>
<path id="Ellipse 22_2" d="M197.5 89.5C200.367 89.5 202.943 89.8325 204.787 90.3594C205.712 90.6238 206.425 90.9298 206.895 91.2471C207.382 91.5762 207.5 91.8395 207.5 92C207.5 92.1605 207.382 92.4238 206.895 92.7529C206.425 93.0702 205.712 93.3762 204.787 93.6406C202.943 94.1675 200.367 94.5 197.5 94.5C194.633 94.5 192.057 94.1675 190.213 93.6406C189.288 93.3762 188.575 93.0702 188.105 92.7529C187.618 92.4238 187.5 92.1605 187.5 92C187.5 91.8395 187.618 91.5762 188.105 91.2471C188.575 90.9298 189.288 90.6238 190.213 90.3594C192.057 89.8325 194.633 89.5 197.5 89.5Z" fill="#DF6D80" stroke="black"/>
</g>
</g>
<g id="button_2">
<g id="Group 16_2">
<g id="Union_3">
<mask id="path-17-inside-3_7_21" fill="white">
<path d="M216 65.5C216 67.433 207.717 69 197.5 69C187.283 69 179 67.433 179 65.5V56.5H216V65.5Z"/>
</mask>
<path d="M216 65.5C216 67.433 207.717 69 197.5 69C187.283 69 179 67.433 179 65.5V56.5H216V65.5Z" fill="#D9D9D9"/>
<path d="M216 65.5C216 67.433 207.717 69 197.5 69C187.283 69 179 67.433 179 65.5V56.5H216V65.5Z" fill="url(#paint2_linear_7_21)"/>
<path d="M179 56.5V55.5H178V56.5H179ZM216 56.5H217V55.5H216V56.5ZM216 65.5H215C215 65.3567 215.081 65.346 214.945 65.4711C214.811 65.595 214.557 65.7619 214.138 65.9495C213.306 66.3218 212.039 66.6814 210.396 66.9923C207.126 67.6109 202.566 68 197.5 68V69V70C202.651 70 207.342 69.6056 210.767 68.9574C212.472 68.6349 213.914 68.2404 214.954 67.7752C215.471 67.5441 215.944 67.2714 216.303 66.9396C216.661 66.6091 217 66.1265 217 65.5H216ZM197.5 69V68C192.434 68 187.874 67.6109 184.604 66.9923C182.961 66.6814 181.694 66.3218 180.862 65.9495C180.443 65.7619 180.189 65.595 180.055 65.4711C179.919 65.346 180 65.3567 180 65.5H179H178C178 66.1265 178.339 66.6091 178.697 66.9396C179.056 67.2714 179.529 67.5441 180.046 67.7752C181.086 68.2404 182.528 68.6349 184.233 68.9574C187.658 69.6056 192.349 70 197.5 70V69ZM179 65.5H180V56.5H179H178V65.5H179ZM179 56.5V57.5H216V56.5V55.5H179V56.5ZM216 56.5H215V65.5H216H217V56.5H216Z" fill="black" mask="url(#path-17-inside-3_7_21)"/>
</g>
<path id="Ellipse 22_3" d="M197.5 53.5C202.587 53.5 207.179 53.8906 210.488 54.5166C212.147 54.8303 213.458 55.1983 214.342 55.5938C214.786 55.7922 215.095 55.9862 215.285 56.1621C215.476 56.3384 215.5 56.4509 215.5 56.5C215.5 56.5491 215.476 56.6616 215.285 56.8379C215.095 57.0138 214.786 57.2078 214.342 57.4062C213.458 57.8017 212.147 58.1697 210.488 58.4834C207.179 59.1094 202.587 59.5 197.5 59.5C192.413 59.5 187.821 59.1094 184.512 58.4834C182.853 58.1697 181.542 57.8017 180.658 57.4062C180.214 57.2078 179.905 57.0138 179.715 56.8379C179.524 56.6616 179.5 56.5491 179.5 56.5C179.5 56.4509 179.524 56.3384 179.715 56.1621C179.905 55.9862 180.214 55.7922 180.658 55.5938C181.542 55.1983 182.853 54.8303 184.512 54.5166C187.821 53.8906 192.413 53.5 197.5 53.5Z" fill="#D9D9D9" stroke="black"/>
</g>
<g id="Group 17_2">
<g id="Union_4">
<mask id="path-20-inside-4_7_21" fill="white">
<path d="M208 55.5C208 56.8807 203.299 58 197.5 58C191.701 58 187 56.8807 187 55.5V50H208V55.5Z"/>
</mask>
<path d="M208 55.5C208 56.8807 203.299 58 197.5 58C191.701 58 187 56.8807 187 55.5V50H208V55.5Z" fill="#D9D9D9"/>
<path d="M208 55.5C208 56.8807 203.299 58 197.5 58C191.701 58 187 56.8807 187 55.5V50H208V55.5Z" fill="url(#paint3_linear_7_21)"/>
<path d="M187 50V49H186V50H187ZM208 50H209V49H208V50ZM208 55.5H207C207 55.2492 207.181 55.3223 206.684 55.6017C206.27 55.8352 205.603 56.0783 204.693 56.295C202.889 56.7245 200.345 57 197.5 57V58V59C200.454 59 203.16 58.7158 205.156 58.2406C206.146 58.0048 207.018 57.7092 207.665 57.3445C208.232 57.0257 209 56.4411 209 55.5H208ZM197.5 58V57C194.655 57 192.111 56.7245 190.307 56.295C189.397 56.0783 188.73 55.8352 188.316 55.6017C187.819 55.3223 188 55.2492 188 55.5H187H186C186 56.4411 186.768 57.0257 187.335 57.3445C187.982 57.7092 188.854 58.0048 189.844 58.2406C191.84 58.7158 194.546 59 197.5 59V58ZM187 55.5H188V50H187H186V55.5H187ZM187 50V51H208V50V49H187V50ZM208 50H207V55.5H208H209V50H208Z" fill="black" mask="url(#path-20-inside-4_7_21)"/>
</g>
<path id="Ellipse 22_4" d="M197.5 47.5C200.367 47.5 202.943 47.8325 204.787 48.3594C205.712 48.6238 206.425 48.9298 206.895 49.2471C207.382 49.5762 207.5 49.8395 207.5 50C207.5 50.1605 207.382 50.4238 206.895 50.7529C206.425 51.0702 205.712 51.3762 204.787 51.6406C202.943 52.1675 200.367 52.5 197.5 52.5C194.633 52.5 192.057 52.1675 190.213 51.6406C189.288 51.3762 188.575 51.0702 188.105 50.7529C187.618 50.4238 187.5 50.1605 187.5 50C187.5 49.8395 187.618 49.5762 188.105 49.2471C188.575 48.9298 189.288 48.6238 190.213 48.3594C192.057 47.8325 194.633 47.5 197.5 47.5Z" fill="#DF6D80" stroke="black"/>
</g>
</g>
<text id="&#208;&#147;&#208;&#162;&#208;&#163;-8 &#208;&#184; &#209;&#130;&#208;&#181;&#209;&#133;&#208;&#189;&#208;&#190;&#208;&#187;&#208;&#190;&#208;&#179;&#208;&#184;&#209;&#143; &#208;&#144;&#208;&#179;&#209;&#128;&#208;&#181;&#208;&#179;&#208;&#176;&#209;&#130;&#208;&#176; &#226;&#132;&#150;8" fill="black" xml:space="preserve" style="white-space: pre" font-family="Inter" font-size="10" letter-spacing="0em"><tspan x="11.4697" y="17.6364">&#x413;&#x422;&#x423;-8 &#x438; &#x442;&#x435;&#x445;&#x43d;&#x43e;&#x43b;&#x43e;&#x433;&#x438;&#x44f; &#x410;&#x433;&#x440;&#x435;&#x433;&#x430;&#x442;&#x430; &#x2116;8</tspan></text>
</g>
<defs>
<filter id="filter0_dd_7_21" x="9" y="93" width="138" height="24" filterUnits="userSpaceOnUse" color-interpolation-filters="sRGB">
<feFlood flood-opacity="0" result="BackgroundImageFix"/>
<feColorMatrix in="SourceAlpha" type="matrix" values="0 0 0 0 0 0 0 0 0 0 0 0 0 0 0 0 0 0 127 0" result="hardAlpha"/>
<feOffset dx="1" dy="1"/>
<feGaussianBlur stdDeviation="1"/>
<feComposite in2="hardAlpha" operator="out"/>
<feColorMatrix type="matrix" values="0 0 0 0 0 0 0 0 0 0 0 0 0 0 0 0 0 0 0.25 0"/>
<feBlend mode="normal" in2="BackgroundImageFix" result="effect1_dropShadow_7_21"/>
<feColorMatrix in="SourceAlpha" type="matrix" values="0 0 0 0 0 0 0 0 0 0 0 0 0 0 0 0 0 0 127 0" result="hardAlpha"/>
<feOffset dx="2" dy="2"/>
<feGaussianBlur stdDeviation="2"/>
<feComposite in2="hardAlpha" operator="out"/>
<feColorMatrix type="matrix" values="0 0 0 0 0 0 0 0 0 0 0 0 0 0 0 0 0 0 0.25 0"/>
<feBlend mode="normal" in2="effect1_dropShadow_7_21" result="effect2_dropShadow_7_21"/>
<feBlend mode="normal" in="SourceGraphic" in2="effect2_dropShadow_7_21" result="shape"/>
</filter>
<filter id="filter1_dd_7_21" x="9" y="59" width="138" height="32" filterUnits="userSpaceOnUse" color-interpolation-filters="sRGB">
<feFlood flood-opacity="0" result="BackgroundImageFix"/>
<feColorMatrix in="SourceAlpha" type="matrix" values="0 0 0 0 0 0 0 0 0 0 0 0 0 0 0 0 0 0 127 0" result="hardAlpha"/>
<feOffset dx="1" dy="1"/>
<feGaussianBlur stdDeviation="1"/>
<feComposite in2="hardAlpha" operator="out"/>
<feColorMatrix type="matrix" values="0 0 0 0 0 0 0 0 0 0 0 0 0 0 0 0 0 0 0.25 0"/>
<feBlend mode="normal" in2="BackgroundImageFix" result="effect1_dropShadow_7_21"/>
<feColorMatrix in="SourceAlpha" type="matrix" values="0 0 0 0 0 0 0 0 0 0 0 0 0 0 0 0 0 0 127 0" result="hardAlpha"/>
<feOffset dx="2" dy="2"/>
<feGaussianBlur stdDeviation="2"/>
<feComposite in2="hardAlpha" operator="out"/>
<feColorMatrix type="matrix" values="0 0 0 0 0 0 0 0 0 0 0 0 0 0 0 0 0 0 0.25 0"/>
<feBlend mode="normal" in2="effect1_dropShadow_7_21" result="effect2_dropShadow_7_21"/>
<feBlend mode="normal" in="SourceGraphic" in2="effect2_dropShadow_7_21" result="shape"/>
</filter>
<filter id="filter2_d_7_21" x="9" y="33" width="138" height="24" filterUnits="userSpaceOnUse" color-interpolation-filters="sRGB">
<feFlood flood-opacity="0" result="BackgroundImageFix"/>
<feColorMatrix in="SourceAlpha" type="matrix" values="0 0 0 0 0 0 0 0 0 0 0 0 0 0 0 0 0 0 127 0" result="hardAlpha"/>
<feOffset dx="2" dy="2"/>
<feGaussianBlur stdDeviation="2"/>
<feComposite in2="hardAlpha" operator="out"/>
<feColorMatrix type="matrix" values="0 0 0 0 0 0 0 0 0 0 0 0 0 0 0 0 0 0 0.25 0"/>
<feBlend mode="normal" in2="BackgroundImageFix" result="effect1_dropShadow_7_21"/>
<feBlend mode="normal" in="SourceGraphic" in2="effect1_dropShadow_7_21" result="shape"/>
</filter>
<linearGradient id="paint0_linear_7_21" x1="179" y1="104.75" x2="216" y2="104.75" gradientUnits="userSpaceOnUse">
<stop stop-color="#737373"/>
<stop offset="0.269231" stop-color="#B5B5B5"/>
<stop offset="0.510178" stop-color="#D9D9D9"/>
<stop offset="0.755089" stop-color="#B5B5B5"/>
<stop offset="1" stop-color="#737373"/>
</linearGradient>
<linearGradient id="paint1_linear_7_21" x1="187" y1="97.9125" x2="210.52" y2="97.9125" gradientUnits="userSpaceOnUse">
<stop stop-color="#D80A2D"/>
<stop offset="0.269231" stop-color="#DC3D3D"/>
<stop offset="0.510178" stop-color="#DF697A"/>
<stop offset="0.755089" stop-color="#DC3D3D"/>
<stop offset="1" stop-color="#E00038"/>
</linearGradient>
<linearGradient id="paint2_linear_7_21" x1="179" y1="62.75" x2="216" y2="62.75" gradientUnits="userSpaceOnUse">
<stop stop-color="#737373"/>
<stop offset="0.269231" stop-color="#B5B5B5"/>
<stop offset="0.510178" stop-color="#D9D9D9"/>
<stop offset="0.755089" stop-color="#B5B5B5"/>
<stop offset="1" stop-color="#737373"/>
</linearGradient>
<linearGradient id="paint3_linear_7_21" x1="187" y1="55.9125" x2="210.52" y2="55.9125" gradientUnits="userSpaceOnUse">
<stop stop-color="#D80A2D"/>
<stop offset="0.269231" stop-color="#DC3D3D"/>
<stop offset="0.510178" stop-color="#DF697A"/>
<stop offset="0.755089" stop-color="#DC3D3D"/>
<stop offset="1" stop-color="#E00038"/>
</linearGradient>
</defs>
</svg>
