<svg width="750" height="429" viewBox="0 0 750 429" fill="none" xmlns="http://www.w3.org/2000/svg">
<g id="A4 - 1" clip-path="url(#clip0_1_5)">
<rect width="429" height="750" transform="translate(0 429) rotate(-90)" fill="white"/>
<text id="&#208;&#154;&#208;&#190;&#208;&#189;. &#208;&#186;&#208;&#190;&#208;&#187;-&#209;&#128;" fill="black" xml:space="preserve" style="white-space: pre" font-family="Inter" font-size="12" font-weight="500" letter-spacing="0em"><tspan x="217.039" y="348.864">&#x41a;&#x43e;&#x43d;. &#x43a;&#x43e;&#x43b;-&#x440;</tspan></text>
<text id="&#208;&#159;&#208;&#176;&#209;&#128; 40" fill="black" xml:space="preserve" style="white-space: pre" font-family="Inter" font-size="12" font-weight="500" letter-spacing="0em"><tspan x="345.076" y="381.864">&#x41f;&#x430;&#x440; 40</tspan></text>
<text id="&#208;&#161;&#208;&#177;&#209;&#128;&#208;&#190;&#209;&#129; &#208;&#191;&#208;&#176;&#209;&#128;&#208;&#176; &#208;&#178; &#208;&#176;&#209;&#130;&#208;&#188;&#208;&#190;&#209;&#129;&#209;&#132;&#208;&#181;&#209;&#128;&#209;&#131;" fill="black" xml:space="preserve" style="white-space: pre" font-family="Inter" font-size="12" font-weight="500" letter-spacing="0em"><tspan x="552.242" y="388.864">&#x421;&#x431;&#x440;&#x43e;&#x441; &#x43f;&#x430;&#x440;&#x430; &#x432; &#x430;&#x442;&#x43c;&#x43e;&#x441;&#x444;&#x435;&#x440;&#x443;</tspan></text>
<text id="&#208;&#159;&#208;&#176;&#209;&#128; 3,5" fill="black" xml:space="preserve" style="white-space: pre" font-family="Inter" font-size="12" font-weight="500" letter-spacing="0em"><tspan x="500.258" y="372.864">&#x41f;&#x430;&#x440; 3,5</tspan></text>
<line id="Line 47" x1="623" y1="156" x2="623" y2="102" stroke="black" stroke-width="2"/>
<line id="Line 1" x1="226.5" y1="130" x2="226.5" y2="143" stroke="black"/>
<line id="Line 2" x1="225" y1="52" x2="225" y2="15" stroke="black" stroke-width="2"/>
<line id="Line 3" x1="303" y1="74" x2="303" y2="6.00002" stroke="black" stroke-width="2"/>
<line id="Line 5" x1="304" y1="73" x2="245" y2="73" stroke="black" stroke-width="2"/>
<line id="Line 9" x1="184" y1="152" x2="184" y2="101" stroke="black" stroke-width="2"/>
<path id="Line 10" d="M184 236L189.773 226L178.226 226L184 236ZM184 227L185 227L185 177L184 177L183 177L183 227L184 227Z" fill="black"/>
<line id="Line 8" x1="207" y1="101" x2="183" y2="101" stroke="black" stroke-width="2"/>
<line id="Line 6" x1="422" y1="73" x2="363" y2="73" stroke="black" stroke-width="2"/>
<line id="Line 4" x1="364" y1="74" x2="364" y2="6.00002" stroke="black" stroke-width="2"/>
<line id="Line 7" x1="440" y1="52" x2="440" y2="15" stroke="black" stroke-width="2"/>
<line id="Line 12" x1="183" y1="106.5" x2="163" y2="106.5" stroke="black"/>
<line id="Line 13" x1="163.5" y1="107" x2="163.5" y2="85" stroke="black"/>
<path id="Line 14" d="M390 217L384.226 227L395.773 227L390 217ZM390 226L389 226L389 388L390 388L391 388L391 226L390 226Z" fill="black"/>
<path id="Line 20" d="M497 388L502.774 378L491.227 378L497 388ZM497 379L498 379L498 217L497 217L496 217L496 379L497 379Z" fill="black"/>
<line id="Line 17" x1="389" y1="305" x2="364" y2="305" stroke="black" stroke-width="2"/>
<line id="Line 19" x1="389" y1="366" x2="364" y2="366" stroke="black" stroke-width="2"/>
<line id="Line 18" x1="365" y1="305" x2="365" y2="366" stroke="black" stroke-width="2"/>
<line id="Line 21" x1="390" y1="233.5" x2="417" y2="233.5" stroke="black"/>
<line id="Line 25" x1="466" y1="233.5" x2="496" y2="233.5" stroke="black"/>
<line id="Line 26" x1="172" y1="402.5" x2="594" y2="402.5" stroke="black"/>
<line id="Line 22" x1="416.5" y1="234" x2="416.5" y2="403" stroke="black"/>
<line id="Line 24" x1="466.5" y1="234" x2="466.5" y2="403" stroke="black"/>
<line id="Line 23" x1="441.5" y1="217" x2="441.5" y2="403" stroke="black"/>
<line id="Line 27" x1="206" y1="352.5" x2="286" y2="352.5" stroke="black"/>
<line id="Line 28" x1="246.5" y1="353" x2="246.5" y2="403" stroke="black"/>
<path id="Line 30" d="M623 236L628.774 226L617.227 226L623 236ZM623 227L624 227L624 180L623 180L622 180L622 227L623 227Z" fill="black"/>
<line id="Line 31" x1="461" y1="101" x2="624" y2="101" stroke="black" stroke-width="2"/>
<line id="Line 33" y1="-0.5" x2="20" y2="-0.5" transform="matrix(1 7.62939e-07 7.62939e-07 -1 624 106)" stroke="black"/>
<line id="Line 34" y1="-0.5" x2="22" y2="-0.5" transform="matrix(0 -1 -1 0 643 107)" stroke="black"/>
<line id="Line 35" x1="362.5" y1="171" x2="362.5" y2="180" stroke="black"/>
<line id="Line 36" x1="363" y1="179.5" x2="381" y2="179.5" stroke="black"/>
<line id="Line 37" y1="-0.5" x2="8.99998" y2="-0.5" transform="matrix(-1.5259e-05 1 1 1.5259e-05 520 171)" stroke="black"/>
<line id="Line 38" y1="-0.5" x2="18" y2="-0.5" transform="matrix(-1 -8.97575e-07 -8.97575e-07 1 519 180)" stroke="black"/>
<line id="Line 39" x1="402.5" y1="125" x2="402.5" y2="141" stroke="black"/>
<g id="Union">
<mask id="path-40-inside-1_1_5" fill="white">
<path d="M357.057 159C357.438 157.304 359.729 156 362.5 156C365.271 156 367.561 157.304 367.942 159L368 159L368 171L357 171L357 159L357.057 159Z"/>
</mask>
<path d="M357.057 159C357.438 157.304 359.729 156 362.5 156C365.271 156 367.561 157.304 367.942 159L368 159L368 171L357 171L357 159L357.057 159Z" fill="#DC8418"/>
<path d="M357.057 159L357.057 160L357.857 160L358.032 159.219L357.057 159ZM362.5 156L362.5 155L362.5 156ZM367.942 159L366.967 159.219L367.142 160L367.942 160L367.942 159ZM368 159L369 159L369 158L368 158L368 159ZM368 171L368 172L369 172L369 171L368 171ZM357 171L356 171L356 172L357 172L357 171ZM357 159L357 158L356 158L356 159L357 159ZM357.057 159L358.032 159.219C358.14 158.742 358.554 158.191 359.369 157.738C360.169 157.292 361.264 157 362.5 157L362.5 156L362.5 155C360.966 155 359.529 155.36 358.396 155.99C357.277 156.613 356.355 157.562 356.081 158.781L357.057 159ZM362.5 156L362.5 157C363.736 157 364.83 157.292 365.631 157.738C366.445 158.191 366.859 158.742 366.967 159.219L367.942 159L368.918 158.781C368.644 157.562 367.722 156.613 366.603 155.99C365.471 155.36 364.034 155 362.5 155L362.5 156ZM367.942 159L367.942 160L368 160L368 159L368 158L367.942 158L367.942 159ZM368 159L367 159L367 171L368 171L369 171L369 159L368 159ZM368 171L368 170L357 170L357 171L357 172L368 172L368 171ZM357 171L358 171L358 159L357 159L356 159L356 171L357 171ZM357 159L357 160L357.057 160L357.057 159L357.057 158L357 158L357 159Z" fill="black" mask="url(#path-40-inside-1_1_5)"/>
</g>
<g id="Union_2">
<mask id="path-42-inside-2_1_5" fill="white">
<path d="M524.943 159C524.562 157.304 522.271 156 519.5 156C516.729 156 514.439 157.304 514.058 159L514 159L514 171L525 171L525 159L524.943 159Z"/>
</mask>
<path d="M524.943 159C524.562 157.304 522.271 156 519.5 156C516.729 156 514.439 157.304 514.058 159L514 159L514 171L525 171L525 159L524.943 159Z" fill="#DC8418"/>
<path d="M524.943 159L524.943 160L524.143 160L523.968 159.219L524.943 159ZM519.5 156L519.5 155L519.5 156ZM514.058 159L515.033 159.219L514.858 160L514.058 160L514.058 159ZM514 159L513 159L513 158L514 158L514 159ZM514 171L514 172L513 172L513 171L514 171ZM525 171L526 171L526 172L525 172L525 171ZM525 159L525 158L526 158L526 159L525 159ZM524.943 159L523.968 159.219C523.86 158.742 523.446 158.191 522.631 157.738C521.831 157.292 520.736 157 519.5 157L519.5 156L519.5 155C521.034 155 522.471 155.36 523.604 155.99C524.723 156.613 525.645 157.562 525.919 158.781L524.943 159ZM519.5 156L519.5 157C518.264 157 517.17 157.292 516.369 157.738C515.555 158.191 515.141 158.742 515.033 159.219L514.058 159L513.082 158.781C513.356 157.562 514.278 156.613 515.396 155.99C516.529 155.36 517.965 155 519.5 155L519.5 156ZM514.058 159L514.058 160L514 160L514 159L514 158L514.058 158L514.058 159ZM514 159L515 159L515 171L514 171L513 171L513 159L514 159ZM514 171L514 170L525 170L525 171L525 172L514 172L514 171ZM525 171L524 171L524 159L525 159L526 159L526 171L525 171ZM525 159L525 160L524.943 160L524.943 159L524.943 158L525 158L525 159Z" fill="black" mask="url(#path-42-inside-2_1_5)"/>
</g>
<g id="equipment">
<path id="Rectangle 15" d="M397.5 120L407.5 120V123.5L405 125H400L397.5 123.5L397.5 120Z" fill="#D9D9D9"/>
<path id="Line 54" d="M398 120.25L398 123.25" stroke="black"/>
<path id="Line 55" d="M407 120.25L407 123.25" stroke="black" stroke-linecap="round"/>
<path id="Line 56" d="M400 124.5L405 124.5" stroke="black" stroke-linecap="round"/>
<path id="Line 57" d="M405 124.5L407 123.25" stroke="black" stroke-linecap="round"/>
<path id="Line 58" d="M400 124.5L398 123.25" stroke="black" stroke-linecap="round"/>
<circle id="Ellipse 4" cx="402" cy="104" r="16.5" fill="#D9D9D9" stroke="black"/>
<path id="Line 48" d="M401 105L398 108" stroke="black" stroke-linecap="round"/>
<path id="Line 50" d="M402 95.5L402 92" stroke="black" stroke-linecap="round"/>
<path id="Line 49" d="M408.743 110.929C408.506 110.787 408.429 110.48 408.571 110.243C408.713 110.006 409.02 109.929 409.257 110.071L408.743 110.929ZM411.5 112L411.243 112.429L408.743 110.929L409 110.5L409.257 110.071L411.757 111.571L411.5 112Z" fill="black"/>
<path id="Line 48_2" d="M404.5 101.5L403 103" stroke="black" stroke-linecap="round"/>
<circle id="Ellipse 5" cx="402" cy="104" r="1.5" fill="#D9D9D9" stroke="black"/>
<path id="Subtract" d="M389 104C389 96.8203 394.82 91 402 91C409.18 91 415 96.8203 415 104C415 107.368 413.719 110.436 411.618 112.745L410.774 112.184C412.776 110.039 414 107.163 414 104C414 97.3726 408.627 92 402 92C395.373 92 390 97.3726 390 104C390 107.074 391.156 109.876 393.058 112L393 112L392.115 112.442C390.173 110.171 389 107.223 389 104Z" fill="black"/>
<path id="Line 49_2" d="M395.224 110.947C395.471 110.824 395.571 110.523 395.447 110.276C395.324 110.029 395.023 109.929 394.776 110.053L395.224 110.947ZM392 112L392.224 112.447L395.224 110.947L395 110.5L394.776 110.053L391.776 111.553L392 112Z" fill="black"/>
<path id="Line 52" d="M408.743 96.5712C408.506 96.7133 408.429 97.0204 408.571 97.2572C408.713 97.494 409.02 97.5708 409.257 97.4287L408.743 96.5712ZM411.5 95.5L411.243 95.0713L408.743 96.5712L409 97L409.257 97.4287L411.757 95.9287L411.5 95.5Z" fill="black"/>
<path id="Line 53" d="M395.257 96.5712C395.494 96.7133 395.571 97.0204 395.429 97.2572C395.287 97.494 394.98 97.5708 394.743 97.4287L395.257 96.5712ZM392.5 95.5L392.757 95.0713L395.257 96.5712L395 97L394.743 97.4287L392.243 95.9287L392.5 95.5Z" fill="black"/>
<path id="Line 50_2" d="M393.5 104L390 104" stroke="black" stroke-linecap="round"/>
<path id="Line 51" d="M414 104L410.5 104" stroke="black" stroke-linecap="round"/>
<path id="Line 59" d="M404.5 122L404.5 124" stroke="black" stroke-linecap="round"/>
<path id="Line 60" d="M400.5 122L400.5 124" stroke="black" stroke-linecap="round"/>
<path id="Line 62" d="M406 125.5L406 127.5" stroke="black" stroke-linecap="round"/>
<path id="Line 63" d="M399 125.5V127.5" stroke="black" stroke-linecap="round"/>
<path id="Line 61" d="M399 127.5L406 127.5" stroke="black"/>
<rect id="Rectangle 14" x="401.5" y="127.5" width="2" height="3" rx="0.5" fill="white" stroke="black"/>
</g>
<g id="panel">
<rect id="Rectangle 8" x="346.5" y="87.5" width="29" height="19" fill="#D9D9D9" stroke="black"/>
<text id="0" fill="black" xml:space="preserve" style="white-space: pre" font-family="Inter" font-size="10" font-weight="500" letter-spacing="0em"><tspan x="357.772" y="100.636">0</tspan></text>
</g>
  <g id="panel__2">
    <rect id="Rectangle 8_2" x="34.5" y="87.5" width="29" height="19" fill="#D9D9D9" stroke="black"/>
    <text id="0_2" fill="black" xml:space="preserve" style="white-space: pre" font-family="Inter" font-size="10" font-weight="500" letter-spacing="0em"><tspan x="44.772" y="100.636">0</tspan></text>
  </g>
  <g id="panel__3">
    <rect id="Rectangle 8_3" x="34.5" y="110.5" width="29" height="19" fill="#D9D9D9" stroke="black"/>
    <text id="0_3" fill="black" xml:space="preserve" style="white-space: pre" font-family="Inter" font-size="10" font-weight="500" letter-spacing="0em"><tspan x="44.772" y="123.636">0</tspan></text>
  </g>
<g id="valve">
<path id="Vector 1" d="M177 152H190L178 176H191" stroke="black" stroke-width="2"/>
</g>
<g id="valve_2">
<path id="Vector 2" d="M616 156H629L617 180H630" stroke="black" stroke-width="2"/>
</g>
<g id="PG">
<circle id="Ellipse 1" cx="164" cy="69" r="15.5" fill="#D9D9D9" stroke="black"/>
<line id="Line 11" x1="148" y1="68.5" x2="179" y2="68.5" stroke="black"/>
<text id="PG_2" fill="black" xml:space="preserve" style="white-space: pre" font-family="Inter" font-size="10" font-weight="500" letter-spacing="0em"><tspan x="157.057" y="65.6363">PG</tspan></text>
</g>
<g id="PG_3">
<circle id="Ellipse 3" cx="16" cy="16" r="15.5" transform="matrix(-1 0 0 1 659 53)" fill="#D9D9D9" stroke="black"/>
<line id="Line 32" y1="-0.5" x2="31" y2="-0.5" transform="matrix(-1 0 0 1 659 69)" stroke="black"/>
<text id="PG_4" fill="black" xml:space="preserve" style="white-space: pre" font-family="Inter" font-size="10" font-weight="500" letter-spacing="0em"><tspan x="636.057" y="65.6364">PG</tspan></text>
</g>
<g id="el">
<path id="Rectangle 4" d="M203.5 141.5H248.5V199.5L203.5 199.5L203.5 141.5Z" fill="#86CF42" stroke="black" stroke-linejoin="round"/>
<text id="&#208;&#173;&#208;&#155;" fill="black" xml:space="preserve" style="white-space: pre" font-family="Inter" font-size="16" font-weight="500" letter-spacing="0em"><tspan x="214.805" y="176.818">&#x42d;&#x41b;</tspan></text>
</g>
<g id="103-JJ1/J2T">
<rect id="Rectangle 2" x="421.5" y="52.5" width="39" height="77" fill="#D9D9D9" stroke="black"/>
<text id="103-JJ1/J2T_2" transform="translate(433 127) rotate(-90)" fill="black" xml:space="preserve" style="white-space: pre" font-family="Inter" font-size="10" font-weight="500" letter-spacing="0em"><tspan x="6.38574" y="11.6364">103-JJ1/J2T</tspan></text>
</g>
<g id="103-JJ1/J2AM">
<rect id="Rectangle 3" x="206.5" y="52.5" width="39" height="77" fill="#D9D9D9" stroke="black"/>
<text id="103-JJ1/J2&#208;&#144;&#208;&#156;" transform="translate(218 127) rotate(-90)" fill="black" xml:space="preserve" style="white-space: pre" font-family="Inter" font-size="10" font-weight="500" letter-spacing="0em"><tspan x="1.6543" y="11.6364">103-JJ1/J2&#x410;&#x41c;</tspan></text>
</g>
<g id="turbine">
<path id="Rectangle 1" d="M491.608 140.5L510.361 216.5H371.639L390.392 140.5H491.608Z" fill="#FD0000" stroke="black" stroke-linejoin="round"/>
<text id="&#208;&#162;&#209;&#131;&#209;&#128;&#208;&#177;&#208;&#184;&#208;&#189;&#208;&#176;" fill="black" xml:space="preserve" style="white-space: pre" font-family="Inter" font-size="16" font-weight="500" letter-spacing="0em"><tspan x="407" y="184.318">&#x422;&#x443;&#x440;&#x431;&#x438;&#x43d;&#x430;</tspan></text>
</g>
<g id="button_pusk" filter="url(#filter0_d_1_5)">
<rect id="Rectangle 11" x="119.5" y="148.5" width="43" height="15" rx="1.5" fill="#D9D9D9" stroke="black"/>
<text id="&#208;&#159;&#208;&#163;&#208;&#161;&#208;&#154;" fill="black" xml:space="preserve" style="white-space: pre" font-family="Inter" font-size="10" font-weight="500" letter-spacing="0em"><tspan x="127.294" y="159.636">&#x41f;&#x423;&#x421;&#x41a;</tspan></text>
</g>
<g id="button_stop" filter="url(#filter1_d_1_5)">
<rect id="Rectangle 12" x="119.5" y="163.5" width="43" height="15" rx="1.5" fill="#D9D9D9" stroke="black"/>
<text id="&#208;&#161;&#208;&#162;&#208;&#158;&#208;&#159;" fill="black" xml:space="preserve" style="white-space: pre" font-family="Inter" font-size="10" font-weight="500" letter-spacing="0em"><tspan x="127.198" y="174.636">&#x421;&#x422;&#x41e;&#x41f;</tspan></text>
</g>
<g id="button_oil">
<g id="Rectangle 9_4" filter="url(#filter5_d_1_5)">
<rect x="272.5" y="147.5" width="81" height="32" rx="2.5" stroke="black" shape-rendering="crispEdges"/>
</g>
<text id="&#208;&#151;&#208;&#176;&#208;&#191;&#208;&#190;&#208;&#187;&#208;&#189;&#208;&#181;&#208;&#189;&#208;&#184;&#208;&#181; &#208;&#188;&#208;&#176;&#209;&#129;&#208;&#187;&#208;&#190;&#208;&#188;_4" transform="translate(273.864 150.3)" fill="black" xml:space="preserve" style="white-space: pre" font-family="Inter" font-size="12" font-weight="500" letter-spacing="0em"><tspan x="3.4645" y="10.0636">&#x417;&#x430;&#x43f;&#x43e;&#x43b;&#x43d;&#x435;&#x43d;&#x438;&#x435; </tspan><tspan x="16.0622" y="25.0636">&#x43c;&#x430;&#x441;&#x43b;&#x43e;&#x43c;</tspan></text>
</g>
<g id="button_oil_2">
<g id="Rectangle 9_5" filter="url(#filter6_d_1_5)">
<rect x="528.5" y="147.5" width="81" height="32" rx="2.5" stroke="black" shape-rendering="crispEdges"/>
</g>
<text id="&#208;&#151;&#208;&#176;&#208;&#191;&#208;&#190;&#208;&#187;&#208;&#189;&#208;&#181;&#208;&#189;&#208;&#184;&#208;&#181; &#208;&#188;&#208;&#176;&#209;&#129;&#208;&#187;&#208;&#190;&#208;&#188;_5" transform="translate(529.864 150.3)" fill="black" xml:space="preserve" style="white-space: pre" font-family="Inter" font-size="12" font-weight="500" letter-spacing="0em"><tspan x="3.4645" y="10.0636">&#x417;&#x430;&#x43f;&#x43e;&#x43b;&#x43d;&#x435;&#x43d;&#x438;&#x435; </tspan><tspan x="16.0622" y="25.0636">&#x43c;&#x430;&#x441;&#x43b;&#x43e;&#x43c;</tspan></text>
</g>
<!--<g id="button_water">-->
<!--<g id="Rectangle 9_6" filter="url(#filter7_d_1_5)">-->
<!--<rect x="5.5" y="5.50002" width="131" height="31" rx="2.5" stroke="black" shape-rendering="crispEdges"/>-->
<!--</g>-->
<!--<text id="&#208;&#159;&#208;&#190;&#208;&#180;&#208;&#186;&#208;&#187;&#209;&#142;&#209;&#135;&#208;&#181;&#208;&#189;&#208;&#184;&#208;&#181; &#208;&#190;&#209;&#133;&#208;&#187;&#208;&#176;&#208;&#182;&#208;&#180;&#208;&#176;&#209;&#142;&#209;&#137;&#208;&#181;&#208;&#185; &#208;&#178;&#208;&#190;&#208;&#180;&#209;&#139;" fill="black" xml:space="preserve" style="white-space: pre" font-family="Inter" font-size="12" font-weight="500" letter-spacing="0em"><tspan x="29.6855" y="17.8637">&#x41f;&#x43e;&#x434;&#x43a;&#x43b;&#x44e;&#x447;&#x435;&#x43d;&#x438;&#x435; </tspan><tspan x="10.4668" y="32.8637">&#x43e;&#x445;&#x43b;&#x430;&#x436;&#x434;&#x430;&#x44e;&#x449;&#x435;&#x439; &#x432;&#x43e;&#x434;&#x44b;</tspan></text>-->
<!--</g>-->
<g id="valve_1">
<g id="Union_3">
<mask id="path-102-inside-3_1_5" fill="white">
<path d="M460 374L465.804 361.5L460 349L473 349L467.197 361.5L473 374L460 374Z"/>
</mask>
<path d="M460 374L465.804 361.5L460 349L473 349L467.197 361.5L473 374L460 374Z" fill="#FD0000"/>
<path d="M460 374L459.093 373.579L458.433 375L460 375L460 374ZM465.804 361.5L466.711 361.921L466.906 361.5L466.711 361.079L465.804 361.5ZM460 349L460 348L458.433 348L459.093 349.421L460 349ZM473 349L473.907 349.421L474.567 348L473 348L473 349ZM467.197 361.5L466.29 361.079L466.095 361.5L466.29 361.921L467.197 361.5ZM473 374L473 375L474.567 375L473.907 373.579L473 374ZM460 374L460.907 374.421L466.711 361.921L465.804 361.5L464.897 361.079L459.093 373.579L460 374ZM465.804 361.5L466.711 361.079L460.907 348.579L460 349L459.093 349.421L464.897 361.921L465.804 361.5ZM460 349L460 350L473 350L473 349L473 348L460 348L460 349ZM473 349L472.093 348.579L466.29 361.079L467.197 361.5L468.104 361.921L473.907 349.421L473 349ZM467.197 361.5L466.29 361.921L472.093 374.421L473 374L473.907 373.579L468.104 361.079L467.197 361.5ZM473 374L473 373L460 373L460 374L460 375L473 375L473 374Z" fill="black" mask="url(#path-102-inside-3_1_5)"/>
</g>
</g>
<g id="button_1">
<g id="Rectangle 10" filter="url(#filter8_d_1_5)">
<rect x="475.5" y="355.5" width="12" height="12" rx="1.5" stroke="black" shape-rendering="crispEdges"/>
</g>
<text id="1" fill="black" xml:space="preserve" style="white-space: pre" font-family="Inter" font-size="10" font-weight="500" letter-spacing="0em"><tspan x="479.137" y="365.136">1</tspan></text>
</g>
<g id="valve_2_2">
<g id="Union_4">
<mask id="path-106-inside-4_1_5" fill="white">
<path d="M435 348L440.804 335.5L435 323L448 323L442.197 335.5L448 348L435 348Z"/>
</mask>
<path d="M435 348L440.804 335.5L435 323L448 323L442.197 335.5L448 348L435 348Z" fill="#FD0000"/>
<path d="M435 348L434.093 347.579L433.433 349L435 349L435 348ZM440.804 335.5L441.711 335.921L441.906 335.5L441.711 335.079L440.804 335.5ZM435 323L435 322L433.433 322L434.093 323.421L435 323ZM448 323L448.907 323.421L449.567 322L448 322L448 323ZM442.197 335.5L441.29 335.079L441.095 335.5L441.29 335.921L442.197 335.5ZM448 348L448 349L449.567 349L448.907 347.579L448 348ZM435 348L435.907 348.421L441.711 335.921L440.804 335.5L439.897 335.079L434.093 347.579L435 348ZM440.804 335.5L441.711 335.079L435.907 322.579L435 323L434.093 323.421L439.897 335.921L440.804 335.5ZM435 323L435 324L448 324L448 323L448 322L435 322L435 323ZM448 323L447.093 322.579L441.29 335.079L442.197 335.5L443.104 335.921L448.907 323.421L448 323ZM442.197 335.5L441.29 335.921L447.093 348.421L448 348L448.907 347.579L443.104 335.079L442.197 335.5ZM448 348L448 347L435 347L435 348L435 349L448 349L448 348Z" fill="black" mask="url(#path-106-inside-4_1_5)"/>
</g>
</g>
<g id="button_2">
<g id="Rectangle 10_2" filter="url(#filter9_d_1_5)">
<rect x="450.5" y="329.5" width="12" height="12" rx="1.5" stroke="black" shape-rendering="crispEdges"/>
</g>
<text id="2" fill="black" xml:space="preserve" style="white-space: pre" font-family="Inter" font-size="10" font-weight="500" letter-spacing="0em"><tspan x="453.434" y="339.136">2</tspan></text>
</g>
<g id="valve_3">
<g id="Union_5">
<mask id="path-110-inside-5_1_5" fill="white">
<path d="M410 374L415.804 361.5L410 349L423 349L417.197 361.5L423 374L410 374Z"/>
</mask>
<path d="M410 374L415.804 361.5L410 349L423 349L417.197 361.5L423 374L410 374Z" fill="#FD0000"/>
<path d="M410 374L409.093 373.579L408.433 375L410 375L410 374ZM415.804 361.5L416.711 361.921L416.906 361.5L416.711 361.079L415.804 361.5ZM410 349L410 348L408.433 348L409.093 349.421L410 349ZM423 349L423.907 349.421L424.567 348L423 348L423 349ZM417.197 361.5L416.29 361.079L416.095 361.5L416.29 361.921L417.197 361.5ZM423 374L423 375L424.567 375L423.907 373.579L423 374ZM410 374L410.907 374.421L416.711 361.921L415.804 361.5L414.897 361.079L409.093 373.579L410 374ZM415.804 361.5L416.711 361.079L410.907 348.579L410 349L409.093 349.421L414.897 361.921L415.804 361.5ZM410 349L410 350L423 350L423 349L423 348L410 348L410 349ZM423 349L422.093 348.579L416.29 361.079L417.197 361.5L418.104 361.921L423.907 349.421L423 349ZM417.197 361.5L416.29 361.921L422.093 374.421L423 374L423.907 373.579L418.104 361.079L417.197 361.5ZM423 374L423 373L410 373L410 374L410 375L423 375L423 374Z" fill="black" mask="url(#path-110-inside-5_1_5)"/>
</g>
</g>
<g id="button_3">
<g id="Rectangle 10_3" filter="url(#filter10_d_1_5)">
<rect x="425.5" y="355.5" width="12" height="12" rx="1.5" stroke="black" shape-rendering="crispEdges"/>
</g>
<text id="3" fill="black" xml:space="preserve" style="white-space: pre" font-family="Inter" font-size="10" font-weight="500" letter-spacing="0em"><tspan x="428.277" y="365.136">3</tspan></text>
</g>
<g id="valve_4">
<g id="valve_4_2">
<mask id="path-114-inside-6_1_5" fill="white">
<path d="M286 396L298.5 401.804L311 396L311 409L298.5 403.197L286 409L286 396Z"/>
</mask>
<path d="M286 396L298.5 401.804L311 396L311 409L298.5 403.197L286 409L286 396Z" fill="#86CF42"/>
<path d="M286 396L286.421 395.093L285 394.433L285 396L286 396ZM298.5 401.804L298.079 402.711L298.5 402.906L298.921 402.711L298.5 401.804ZM311 396L312 396L312 394.433L310.579 395.093L311 396ZM311 409L310.579 409.907L312 410.567L312 409L311 409ZM298.5 403.197L298.921 402.29L298.5 402.095L298.079 402.29L298.5 403.197ZM286 409L285 409L285 410.567L286.421 409.907L286 409ZM286 396L285.579 396.907L298.079 402.711L298.5 401.804L298.921 400.897L286.421 395.093L286 396ZM298.5 401.804L298.921 402.711L311.421 396.907L311 396L310.579 395.093L298.079 400.897L298.5 401.804ZM311 396L310 396L310 409L311 409L312 409L312 396L311 396ZM311 409L311.421 408.093L298.921 402.29L298.5 403.197L298.079 404.104L310.579 409.907L311 409ZM298.5 403.197L298.079 402.29L285.579 408.093L286 409L286.421 409.907L298.921 404.104L298.5 403.197ZM286 409L287 409L287 396L286 396L285 396L285 409L286 409Z" fill="black" mask="url(#path-114-inside-6_1_5)"/>
</g>
</g>
<g id="button_4">
<g id="Rectangle 10_4" filter="url(#filter11_d_1_5)">
<rect x="292.5" y="411.5" width="12" height="12" rx="1.5" stroke="black" shape-rendering="crispEdges"/>
</g>
<text id="4" fill="black" xml:space="preserve" style="white-space: pre" font-family="Inter" font-size="10" font-weight="500" letter-spacing="0em"><tspan x="295.229" y="421.136">4</tspan></text>
</g>
<g id="valve_5">
<g id="Union_6">
<mask id="path-118-inside-7_1_5" fill="white">
<path d="M552 396L564.5 401.804L577 396L577 409L564.5 403.197L552 409L552 396Z"/>
</mask>
<path d="M552 396L564.5 401.804L577 396L577 409L564.5 403.197L552 409L552 396Z" fill="#FD0000"/>
<path d="M552 396L552.421 395.093L551 394.433L551 396L552 396ZM564.5 401.804L564.079 402.711L564.5 402.906L564.921 402.711L564.5 401.804ZM577 396L578 396L578 394.433L576.579 395.093L577 396ZM577 409L576.579 409.907L578 410.567L578 409L577 409ZM564.5 403.197L564.921 402.29L564.5 402.095L564.079 402.29L564.5 403.197ZM552 409L551 409L551 410.567L552.421 409.907L552 409ZM552 396L551.579 396.907L564.079 402.711L564.5 401.804L564.921 400.897L552.421 395.093L552 396ZM564.5 401.804L564.921 402.711L577.421 396.907L577 396L576.579 395.093L564.079 400.897L564.5 401.804ZM577 396L576 396L576 409L577 409L578 409L578 396L577 396ZM577 409L577.421 408.093L564.921 402.29L564.5 403.197L564.079 404.104L576.579 409.907L577 409ZM564.5 403.197L564.079 402.29L551.579 408.093L552 409L552.421 409.907L564.921 404.104L564.5 403.197ZM552 409L553 409L553 396L552 396L551 396L551 409L552 409Z" fill="black" mask="url(#path-118-inside-7_1_5)"/>
</g>
</g>
<g id="button_5">
<g id="Rectangle 10_5" filter="url(#filter12_d_1_5)">
<rect x="558.5" y="411.5" width="12" height="12" rx="1.5" stroke="black" shape-rendering="crispEdges"/>
</g>
<text id="5" fill="black" xml:space="preserve" style="white-space: pre" font-family="Inter" font-size="10" font-weight="500" letter-spacing="0em"><tspan x="561.399" y="421.136">5</tspan></text>
</g>
<g id="valve_6">
<g id="Union_7">
<mask id="path-122-inside-8_1_5" fill="white">
<path d="M490 315L496.25 302.5L490 290L504 290L497.75 302.5L504 315L490 315Z"/>
</mask>
<path d="M490 315L496.25 302.5L490 290L504 290L497.75 302.5L504 315L490 315Z" fill="#FD0000"/>
<path d="M490 315L489.106 314.553L488.382 316L490 316L490 315ZM496.25 302.5L497.144 302.947L497.368 302.5L497.144 302.053L496.25 302.5ZM490 290L490 289L488.382 289L489.106 290.447L490 290ZM504 290L504.894 290.447L505.618 289L504 289L504 290ZM497.75 302.5L496.856 302.053L496.632 302.5L496.856 302.947L497.75 302.5ZM504 315L504 316L505.618 316L504.894 314.553L504 315ZM490 315L490.894 315.447L497.144 302.947L496.25 302.5L495.356 302.053L489.106 314.553L490 315ZM496.25 302.5L497.144 302.053L490.894 289.553L490 290L489.106 290.447L495.356 302.947L496.25 302.5ZM490 290L490 291L504 291L504 290L504 289L490 289L490 290ZM504 290L503.106 289.553L496.856 302.053L497.75 302.5L498.644 302.947L504.894 290.447L504 290ZM497.75 302.5L496.856 302.947L503.106 315.447L504 315L504.894 314.553L498.644 302.053L497.75 302.5ZM504 315L504 314L490 314L490 315L490 316L504 316L504 315Z" fill="black" mask="url(#path-122-inside-8_1_5)"/>
</g>
</g>
<g id="button_6">
<g id="Rectangle 10_6" filter="url(#filter13_d_1_5)">
<rect x="506.5" y="296.5" width="12" height="12" rx="1.5" stroke="black" shape-rendering="crispEdges"/>
</g>
<text id="6" fill="black" xml:space="preserve" style="white-space: pre" font-family="Inter" font-size="10" font-weight="500" letter-spacing="0em"><tspan x="509.321" y="306.136">6</tspan></text>
</g>
<g id="valve_7">
<g id="Union_8">
<mask id="path-126-inside-9_1_5" fill="white">
<path d="M372 323L365.75 335.5L372 348L358 348L364.25 335.5L358 323L372 323Z"/>
</mask>
<path d="M372 323L365.75 335.5L372 348L358 348L364.25 335.5L358 323L372 323Z" fill="#FD0000"/>
<path d="M372 323L372.894 323.447L373.618 322L372 322L372 323ZM365.75 335.5L364.856 335.053L364.632 335.5L364.856 335.947L365.75 335.5ZM372 348L372 349L373.618 349L372.894 347.553L372 348ZM358 348L357.106 347.553L356.382 349L358 349L358 348ZM364.25 335.5L365.144 335.947L365.368 335.5L365.144 335.053L364.25 335.5ZM358 323L358 322L356.382 322L357.106 323.447L358 323ZM372 323L371.106 322.553L364.856 335.053L365.75 335.5L366.644 335.947L372.894 323.447L372 323ZM365.75 335.5L364.856 335.947L371.106 348.447L372 348L372.894 347.553L366.644 335.053L365.75 335.5ZM372 348L372 347L358 347L358 348L358 349L372 349L372 348ZM358 348L358.894 348.447L365.144 335.947L364.25 335.5L363.356 335.053L357.106 347.553L358 348ZM364.25 335.5L365.144 335.053L358.894 322.553L358 323L357.106 323.447L363.356 335.947L364.25 335.5ZM358 323L358 324L372 324L372 323L372 322L358 322L358 323Z" fill="black" mask="url(#path-126-inside-9_1_5)"/>
</g>
</g>
<g id="button_7">
<g id="Rectangle 10_7" filter="url(#filter14_d_1_5)">
<rect x="343.5" y="329.5" width="12" height="12" rx="1.5" stroke="black" shape-rendering="crispEdges"/>
</g>
<text id="7" fill="black" xml:space="preserve" style="white-space: pre" font-family="Inter" font-size="10" font-weight="500" letter-spacing="0em"><tspan x="346.604" y="339.136">7</tspan></text>
</g>
<g id="valve_8">
<g id="Union_9">
<mask id="path-130-inside-10_1_5" fill="white">
<path d="M397 323L390.75 335.5L397 348L383 348L389.25 335.5L383 323L397 323Z"/>
</mask>
<path d="M397 323L390.75 335.5L397 348L383 348L389.25 335.5L383 323L397 323Z" fill="#FD0000"/>
<path d="M397 323L397.894 323.447L398.618 322L397 322L397 323ZM390.75 335.5L389.856 335.053L389.632 335.5L389.856 335.947L390.75 335.5ZM397 348L397 349L398.618 349L397.894 347.553L397 348ZM383 348L382.106 347.553L381.382 349L383 349L383 348ZM389.25 335.5L390.144 335.947L390.368 335.5L390.144 335.053L389.25 335.5ZM383 323L383 322L381.382 322L382.106 323.447L383 323ZM397 323L396.106 322.553L389.856 335.053L390.75 335.5L391.644 335.947L397.894 323.447L397 323ZM390.75 335.5L389.856 335.947L396.106 348.447L397 348L397.894 347.553L391.644 335.053L390.75 335.5ZM397 348L397 347L383 347L383 348L383 349L397 349L397 348ZM383 348L383.894 348.447L390.144 335.947L389.25 335.5L388.356 335.053L382.106 347.553L383 348ZM389.25 335.5L390.144 335.053L383.894 322.553L383 323L382.106 323.447L388.356 335.947L389.25 335.5ZM383 323L383 324L397 324L397 323L397 322L383 322L383 323Z" fill="black" mask="url(#path-130-inside-10_1_5)"/>
</g>
</g>
<g id="button_8">
<g id="Rectangle 10_8" filter="url(#filter15_d_1_5)">
<rect x="399.5" y="329.5" width="12" height="12" rx="1.5" stroke="black" shape-rendering="crispEdges"/>
</g>
<text id="8" fill="black" xml:space="preserve" style="white-space: pre" font-family="Inter" font-size="10" font-weight="500" letter-spacing="0em"><tspan x="402.341" y="339.136">8</tspan></text>
</g>
<g id="equipment_9">
<rect id="Rectangle 5" x="376.5" y="276.5" width="23" height="14" fill="#FD0000" stroke="black"/>
<line id="Line 16" x1="376" y1="283.5" x2="371" y2="283.5" stroke="black"/>
<rect id="Rectangle 6" x="366.5" y="280.5" width="4" height="16" fill="black" stroke="black"/>
</g>
<g id="button_9">
<g id="Rectangle 10_9" filter="url(#filter16_d_1_5)">
<rect x="351.5" y="277.5" width="12" height="12" rx="1.5" stroke="black" shape-rendering="crispEdges"/>
</g>
<text id="9" fill="black" xml:space="preserve" style="white-space: pre" font-family="Inter" font-size="10" font-weight="500" letter-spacing="0em"><tspan x="354.321" y="287.136">9</tspan></text>
</g>
<g id="valve_10">
<g id="Union_10">
<mask id="path-139-inside-11_1_5" fill="white">
<path d="M397 243L390.75 255.5L397 268L383 268L389.25 255.5L383 243L397 243Z"/>
</mask>
<path d="M397 243L390.75 255.5L397 268L383 268L389.25 255.5L383 243L397 243Z" fill="#FD0000"/>
<path d="M397 243L397.894 243.447L398.618 242L397 242L397 243ZM390.75 255.5L389.856 255.053L389.632 255.5L389.856 255.947L390.75 255.5ZM397 268L397 269L398.618 269L397.894 267.553L397 268ZM383 268L382.106 267.553L381.382 269L383 269L383 268ZM389.25 255.5L390.144 255.947L390.368 255.5L390.144 255.053L389.25 255.5ZM383 243L383 242L381.382 242L382.106 243.447L383 243ZM397 243L396.106 242.553L389.856 255.053L390.75 255.5L391.644 255.947L397.894 243.447L397 243ZM390.75 255.5L389.856 255.947L396.106 268.447L397 268L397.894 267.553L391.644 255.053L390.75 255.5ZM397 268L397 267L383 267L383 268L383 269L397 269L397 268ZM383 268L383.894 268.447L390.144 255.947L389.25 255.5L388.356 255.053L382.106 267.553L383 268ZM389.25 255.5L390.144 255.053L383.894 242.553L383 243L382.106 243.447L388.356 255.947L389.25 255.5ZM383 243L383 244L397 244L397 243L397 242L383 242L383 243Z" fill="black" mask="url(#path-139-inside-11_1_5)"/>
</g>
<path id="Line 15" d="M389 255.5L382 255.5" stroke="black"/>
<path id="Ellipse 2" d="M381.5 260.478C378.663 260.247 376.5 258.072 376.5 255.5C376.5 252.928 378.663 250.752 381.5 250.521V260.478Z" fill="#FD0000" stroke="black"/>
</g>
<g id="button_10">
<g id="Rectangle 10_10" filter="url(#filter17_d_1_5)">
<rect x="361.5" y="249.5" width="12" height="12" rx="1.5" stroke="black" shape-rendering="crispEdges"/>
</g>
<text id="10" fill="black" xml:space="preserve" style="white-space: pre" font-family="Inter" font-size="10" font-weight="500" letter-spacing="0em"><tspan x="361.909" y="259.136">10</tspan></text>
</g>
</g>
<defs>
<filter id="filter0_d_1_5" x="116" y="145" width="52" height="24" filterUnits="userSpaceOnUse" color-interpolation-filters="sRGB">
<feFlood flood-opacity="0" result="BackgroundImageFix"/>
<feColorMatrix in="SourceAlpha" type="matrix" values="0 0 0 0 0 0 0 0 0 0 0 0 0 0 0 0 0 0 127 0" result="hardAlpha"/>
<feOffset dx="1" dy="1"/>
<feGaussianBlur stdDeviation="2"/>
<feComposite in2="hardAlpha" operator="out"/>
<feColorMatrix type="matrix" values="0 0 0 0 0 0 0 0 0 0 0 0 0 0 0 0 0 0 0.25 0"/>
<feBlend mode="normal" in2="BackgroundImageFix" result="effect1_dropShadow_1_5"/>
<feBlend mode="normal" in="SourceGraphic" in2="effect1_dropShadow_1_5" result="shape"/>
</filter>
<filter id="filter1_d_1_5" x="116" y="160" width="52" height="24" filterUnits="userSpaceOnUse" color-interpolation-filters="sRGB">
<feFlood flood-opacity="0" result="BackgroundImageFix"/>
<feColorMatrix in="SourceAlpha" type="matrix" values="0 0 0 0 0 0 0 0 0 0 0 0 0 0 0 0 0 0 127 0" result="hardAlpha"/>
<feOffset dx="1" dy="1"/>
<feGaussianBlur stdDeviation="2"/>
<feComposite in2="hardAlpha" operator="out"/>
<feColorMatrix type="matrix" values="0 0 0 0 0 0 0 0 0 0 0 0 0 0 0 0 0 0 0.25 0"/>
<feBlend mode="normal" in2="BackgroundImageFix" result="effect1_dropShadow_1_5"/>
<feBlend mode="normal" in="SourceGraphic" in2="effect1_dropShadow_1_5" result="shape"/>
</filter>
<filter id="filter2_d_1_5" x="3" y="47.0001" width="140" height="28" filterUnits="userSpaceOnUse" color-interpolation-filters="sRGB">
<feFlood flood-opacity="0" result="BackgroundImageFix"/>
<feColorMatrix in="SourceAlpha" type="matrix" values="0 0 0 0 0 0 0 0 0 0 0 0 0 0 0 0 0 0 127 0" result="hardAlpha"/>
<feOffset dx="2" dy="4"/>
<feGaussianBlur stdDeviation="2"/>
<feComposite in2="hardAlpha" operator="out"/>
<feColorMatrix type="matrix" values="0 0 0 0 0 0 0 0 0 0 0 0 0 0 0 0 0 0 0.25 0"/>
<feBlend mode="normal" in2="BackgroundImageFix" result="effect1_dropShadow_1_5"/>
<feBlend mode="normal" in="SourceGraphic" in2="effect1_dropShadow_1_5" result="shape"/>
</filter>
<filter id="filter3_d_1_5" x="1" y="97" width="140" height="28" filterUnits="userSpaceOnUse" color-interpolation-filters="sRGB">
<feFlood flood-opacity="0" result="BackgroundImageFix"/>
<feColorMatrix in="SourceAlpha" type="matrix" values="0 0 0 0 0 0 0 0 0 0 0 0 0 0 0 0 0 0 127 0" result="hardAlpha"/>
<feOffset dy="4"/>
<feGaussianBlur stdDeviation="2"/>
<feComposite in2="hardAlpha" operator="out"/>
<feColorMatrix type="matrix" values="0 0 0 0 0 0 0 0 0 0 0 0 0 0 0 0 0 0 0.25 0"/>
<feBlend mode="normal" in2="BackgroundImageFix" result="effect1_dropShadow_1_5"/>
<feBlend mode="normal" in="SourceGraphic" in2="effect1_dropShadow_1_5" result="shape"/>
</filter>
<filter id="filter4_d_1_5" x="1" y="72" width="140" height="28" filterUnits="userSpaceOnUse" color-interpolation-filters="sRGB">
<feFlood flood-opacity="0" result="BackgroundImageFix"/>
<feColorMatrix in="SourceAlpha" type="matrix" values="0 0 0 0 0 0 0 0 0 0 0 0 0 0 0 0 0 0 127 0" result="hardAlpha"/>
<feOffset dy="4"/>
<feGaussianBlur stdDeviation="2"/>
<feComposite in2="hardAlpha" operator="out"/>
<feColorMatrix type="matrix" values="0 0 0 0 0 0 0 0 0 0 0 0 0 0 0 0 0 0 0.25 0"/>
<feBlend mode="normal" in2="BackgroundImageFix" result="effect1_dropShadow_1_5"/>
<feBlend mode="normal" in="SourceGraphic" in2="effect1_dropShadow_1_5" result="shape"/>
</filter>
<filter id="filter5_d_1_5" x="268" y="147" width="90" height="41" filterUnits="userSpaceOnUse" color-interpolation-filters="sRGB">
<feFlood flood-opacity="0" result="BackgroundImageFix"/>
<feColorMatrix in="SourceAlpha" type="matrix" values="0 0 0 0 0 0 0 0 0 0 0 0 0 0 0 0 0 0 127 0" result="hardAlpha"/>
<feOffset dy="4"/>
<feGaussianBlur stdDeviation="2"/>
<feComposite in2="hardAlpha" operator="out"/>
<feColorMatrix type="matrix" values="0 0 0 0 0 0 0 0 0 0 0 0 0 0 0 0 0 0 0.25 0"/>
<feBlend mode="normal" in2="BackgroundImageFix" result="effect1_dropShadow_1_5"/>
<feBlend mode="normal" in="SourceGraphic" in2="effect1_dropShadow_1_5" result="shape"/>
</filter>
<filter id="filter6_d_1_5" x="524" y="147" width="90" height="41" filterUnits="userSpaceOnUse" color-interpolation-filters="sRGB">
<feFlood flood-opacity="0" result="BackgroundImageFix"/>
<feColorMatrix in="SourceAlpha" type="matrix" values="0 0 0 0 0 0 0 0 0 0 0 0 0 0 0 0 0 0 127 0" result="hardAlpha"/>
<feOffset dy="4"/>
<feGaussianBlur stdDeviation="2"/>
<feComposite in2="hardAlpha" operator="out"/>
<feColorMatrix type="matrix" values="0 0 0 0 0 0 0 0 0 0 0 0 0 0 0 0 0 0 0.25 0"/>
<feBlend mode="normal" in2="BackgroundImageFix" result="effect1_dropShadow_1_5"/>
<feBlend mode="normal" in="SourceGraphic" in2="effect1_dropShadow_1_5" result="shape"/>
</filter>
<filter id="filter7_d_1_5" x="1" y="5.00002" width="140" height="40" filterUnits="userSpaceOnUse" color-interpolation-filters="sRGB">
<feFlood flood-opacity="0" result="BackgroundImageFix"/>
<feColorMatrix in="SourceAlpha" type="matrix" values="0 0 0 0 0 0 0 0 0 0 0 0 0 0 0 0 0 0 127 0" result="hardAlpha"/>
<feOffset dy="4"/>
<feGaussianBlur stdDeviation="2"/>
<feComposite in2="hardAlpha" operator="out"/>
<feColorMatrix type="matrix" values="0 0 0 0 0 0 0 0 0 0 0 0 0 0 0 0 0 0 0.25 0"/>
<feBlend mode="normal" in2="BackgroundImageFix" result="effect1_dropShadow_1_5"/>
<feBlend mode="normal" in="SourceGraphic" in2="effect1_dropShadow_1_5" result="shape"/>
</filter>
<filter id="filter8_d_1_5" x="471" y="355" width="21" height="21" filterUnits="userSpaceOnUse" color-interpolation-filters="sRGB">
<feFlood flood-opacity="0" result="BackgroundImageFix"/>
<feColorMatrix in="SourceAlpha" type="matrix" values="0 0 0 0 0 0 0 0 0 0 0 0 0 0 0 0 0 0 127 0" result="hardAlpha"/>
<feOffset dy="4"/>
<feGaussianBlur stdDeviation="2"/>
<feComposite in2="hardAlpha" operator="out"/>
<feColorMatrix type="matrix" values="0 0 0 0 0 0 0 0 0 0 0 0 0 0 0 0 0 0 0.25 0"/>
<feBlend mode="normal" in2="BackgroundImageFix" result="effect1_dropShadow_1_5"/>
<feBlend mode="normal" in="SourceGraphic" in2="effect1_dropShadow_1_5" result="shape"/>
</filter>
<filter id="filter9_d_1_5" x="446" y="329" width="21" height="21" filterUnits="userSpaceOnUse" color-interpolation-filters="sRGB">
<feFlood flood-opacity="0" result="BackgroundImageFix"/>
<feColorMatrix in="SourceAlpha" type="matrix" values="0 0 0 0 0 0 0 0 0 0 0 0 0 0 0 0 0 0 127 0" result="hardAlpha"/>
<feOffset dy="4"/>
<feGaussianBlur stdDeviation="2"/>
<feComposite in2="hardAlpha" operator="out"/>
<feColorMatrix type="matrix" values="0 0 0 0 0 0 0 0 0 0 0 0 0 0 0 0 0 0 0.25 0"/>
<feBlend mode="normal" in2="BackgroundImageFix" result="effect1_dropShadow_1_5"/>
<feBlend mode="normal" in="SourceGraphic" in2="effect1_dropShadow_1_5" result="shape"/>
</filter>
<filter id="filter10_d_1_5" x="421" y="355" width="21" height="21" filterUnits="userSpaceOnUse" color-interpolation-filters="sRGB">
<feFlood flood-opacity="0" result="BackgroundImageFix"/>
<feColorMatrix in="SourceAlpha" type="matrix" values="0 0 0 0 0 0 0 0 0 0 0 0 0 0 0 0 0 0 127 0" result="hardAlpha"/>
<feOffset dy="4"/>
<feGaussianBlur stdDeviation="2"/>
<feComposite in2="hardAlpha" operator="out"/>
<feColorMatrix type="matrix" values="0 0 0 0 0 0 0 0 0 0 0 0 0 0 0 0 0 0 0.25 0"/>
<feBlend mode="normal" in2="BackgroundImageFix" result="effect1_dropShadow_1_5"/>
<feBlend mode="normal" in="SourceGraphic" in2="effect1_dropShadow_1_5" result="shape"/>
</filter>
<filter id="filter11_d_1_5" x="288" y="411" width="21" height="21" filterUnits="userSpaceOnUse" color-interpolation-filters="sRGB">
<feFlood flood-opacity="0" result="BackgroundImageFix"/>
<feColorMatrix in="SourceAlpha" type="matrix" values="0 0 0 0 0 0 0 0 0 0 0 0 0 0 0 0 0 0 127 0" result="hardAlpha"/>
<feOffset dy="4"/>
<feGaussianBlur stdDeviation="2"/>
<feComposite in2="hardAlpha" operator="out"/>
<feColorMatrix type="matrix" values="0 0 0 0 0 0 0 0 0 0 0 0 0 0 0 0 0 0 0.25 0"/>
<feBlend mode="normal" in2="BackgroundImageFix" result="effect1_dropShadow_1_5"/>
<feBlend mode="normal" in="SourceGraphic" in2="effect1_dropShadow_1_5" result="shape"/>
</filter>
<filter id="filter12_d_1_5" x="554" y="411" width="21" height="21" filterUnits="userSpaceOnUse" color-interpolation-filters="sRGB">
<feFlood flood-opacity="0" result="BackgroundImageFix"/>
<feColorMatrix in="SourceAlpha" type="matrix" values="0 0 0 0 0 0 0 0 0 0 0 0 0 0 0 0 0 0 127 0" result="hardAlpha"/>
<feOffset dy="4"/>
<feGaussianBlur stdDeviation="2"/>
<feComposite in2="hardAlpha" operator="out"/>
<feColorMatrix type="matrix" values="0 0 0 0 0 0 0 0 0 0 0 0 0 0 0 0 0 0 0.25 0"/>
<feBlend mode="normal" in2="BackgroundImageFix" result="effect1_dropShadow_1_5"/>
<feBlend mode="normal" in="SourceGraphic" in2="effect1_dropShadow_1_5" result="shape"/>
</filter>
<filter id="filter13_d_1_5" x="502" y="296" width="21" height="21" filterUnits="userSpaceOnUse" color-interpolation-filters="sRGB">
<feFlood flood-opacity="0" result="BackgroundImageFix"/>
<feColorMatrix in="SourceAlpha" type="matrix" values="0 0 0 0 0 0 0 0 0 0 0 0 0 0 0 0 0 0 127 0" result="hardAlpha"/>
<feOffset dy="4"/>
<feGaussianBlur stdDeviation="2"/>
<feComposite in2="hardAlpha" operator="out"/>
<feColorMatrix type="matrix" values="0 0 0 0 0 0 0 0 0 0 0 0 0 0 0 0 0 0 0.25 0"/>
<feBlend mode="normal" in2="BackgroundImageFix" result="effect1_dropShadow_1_5"/>
<feBlend mode="normal" in="SourceGraphic" in2="effect1_dropShadow_1_5" result="shape"/>
</filter>
<filter id="filter14_d_1_5" x="339" y="329" width="21" height="21" filterUnits="userSpaceOnUse" color-interpolation-filters="sRGB">
<feFlood flood-opacity="0" result="BackgroundImageFix"/>
<feColorMatrix in="SourceAlpha" type="matrix" values="0 0 0 0 0 0 0 0 0 0 0 0 0 0 0 0 0 0 127 0" result="hardAlpha"/>
<feOffset dy="4"/>
<feGaussianBlur stdDeviation="2"/>
<feComposite in2="hardAlpha" operator="out"/>
<feColorMatrix type="matrix" values="0 0 0 0 0 0 0 0 0 0 0 0 0 0 0 0 0 0 0.25 0"/>
<feBlend mode="normal" in2="BackgroundImageFix" result="effect1_dropShadow_1_5"/>
<feBlend mode="normal" in="SourceGraphic" in2="effect1_dropShadow_1_5" result="shape"/>
</filter>
<filter id="filter15_d_1_5" x="395" y="329" width="21" height="21" filterUnits="userSpaceOnUse" color-interpolation-filters="sRGB">
<feFlood flood-opacity="0" result="BackgroundImageFix"/>
<feColorMatrix in="SourceAlpha" type="matrix" values="0 0 0 0 0 0 0 0 0 0 0 0 0 0 0 0 0 0 127 0" result="hardAlpha"/>
<feOffset dy="4"/>
<feGaussianBlur stdDeviation="2"/>
<feComposite in2="hardAlpha" operator="out"/>
<feColorMatrix type="matrix" values="0 0 0 0 0 0 0 0 0 0 0 0 0 0 0 0 0 0 0.25 0"/>
<feBlend mode="normal" in2="BackgroundImageFix" result="effect1_dropShadow_1_5"/>
<feBlend mode="normal" in="SourceGraphic" in2="effect1_dropShadow_1_5" result="shape"/>
</filter>
<filter id="filter16_d_1_5" x="347" y="277" width="21" height="21" filterUnits="userSpaceOnUse" color-interpolation-filters="sRGB">
<feFlood flood-opacity="0" result="BackgroundImageFix"/>
<feColorMatrix in="SourceAlpha" type="matrix" values="0 0 0 0 0 0 0 0 0 0 0 0 0 0 0 0 0 0 127 0" result="hardAlpha"/>
<feOffset dy="4"/>
<feGaussianBlur stdDeviation="2"/>
<feComposite in2="hardAlpha" operator="out"/>
<feColorMatrix type="matrix" values="0 0 0 0 0 0 0 0 0 0 0 0 0 0 0 0 0 0 0.25 0"/>
<feBlend mode="normal" in2="BackgroundImageFix" result="effect1_dropShadow_1_5"/>
<feBlend mode="normal" in="SourceGraphic" in2="effect1_dropShadow_1_5" result="shape"/>
</filter>
<filter id="filter17_d_1_5" x="357" y="249" width="21" height="21" filterUnits="userSpaceOnUse" color-interpolation-filters="sRGB">
<feFlood flood-opacity="0" result="BackgroundImageFix"/>
<feColorMatrix in="SourceAlpha" type="matrix" values="0 0 0 0 0 0 0 0 0 0 0 0 0 0 0 0 0 0 127 0" result="hardAlpha"/>
<feOffset dy="4"/>
<feGaussianBlur stdDeviation="2"/>
<feComposite in2="hardAlpha" operator="out"/>
<feColorMatrix type="matrix" values="0 0 0 0 0 0 0 0 0 0 0 0 0 0 0 0 0 0 0.25 0"/>
<feBlend mode="normal" in2="BackgroundImageFix" result="effect1_dropShadow_1_5"/>
<feBlend mode="normal" in="SourceGraphic" in2="effect1_dropShadow_1_5" result="shape"/>
</filter>
<clipPath id="clip0_1_5">
<rect width="429" height="750" fill="white" transform="translate(0 429) rotate(-90)"/>
</clipPath>
</defs>
</svg>
