<svg width="22" height="15" viewBox="0 0 22 15" fill="none" xmlns="http://www.w3.org/2000/svg">
<path id="Union" d="M1.75586 0.0126953C3.01639 0.140824 4 1.20566 4 2.5V12.5C4 13.8807 2.88071 15 1.5 15H0V14H1.5C2.32843 14 3 13.3284 3 12.5V2.5C3 1.72334 2.40972 1.08461 1.65332 1.00781L1.5 1H0V0H1.5L1.75586 0.0126953ZM13.5 0C14.8807 8.05319e-09 16 1.11929 16 2.5V12.5C16 13.8807 14.8807 15 13.5 15H8.5C7.11929 15 6 13.8807 6 12.5V2.5C6 1.11929 7.11929 0 8.5 0H13.5ZM22 1H20.5L20.3467 1.00781C19.5903 1.08461 19 1.72334 19 2.5V12.5C19 13.3284 19.6716 14 20.5 14H22V15H20.5C19.1193 15 18 13.8807 18 12.5V2.5C18 1.20566 18.9836 0.140824 20.2441 0.0126953L20.5 0H22V1ZM8.5 1C7.67157 1 7 1.67157 7 2.5V12.5C7 13.3284 7.67157 14 8.5 14H13.5C14.3284 14 15 13.3284 15 12.5V2.5C15 1.67157 14.3284 1 13.5 1H8.5ZM11 8.5C11.2761 8.5 11.5 8.72386 11.5 9V10C11.5 10.2761 11.2761 10.5 11 10.5C10.7239 10.5 10.5 10.2761 10.5 10V9C10.5 8.72386 10.7239 8.5 11 8.5ZM9.5 7C9.77614 7 10 7.22386 10 7.5C10 7.77614 9.77614 8 9.5 8H8.5C8.22386 8 8 7.77614 8 7.5C8 7.22386 8.22386 7 8.5 7H9.5ZM13.5 7C13.7761 7 14 7.22386 14 7.5C14 7.77614 13.7761 8 13.5 8H12.5C12.2239 8 12 7.77614 12 7.5C12 7.22386 12.2239 7 12.5 7H13.5ZM11 4.5C11.2761 4.5 11.5 4.72386 11.5 5V6C11.5 6.27614 11.2761 6.5 11 6.5C10.7239 6.5 10.5 6.27614 10.5 6V5C10.5 4.72386 10.7239 4.5 11 4.5Z" fill="currentColor"/>
</svg>
