<svg width="19" height="17" viewBox="0 0 19 17" fill="none" xmlns="http://www.w3.org/2000/svg">
<path d="M18.501 11C18.7767 11.0005 19.001 11.2242 19.001 11.5V14.5C19.001 15.8804 17.8813 16.9995 16.501 17H3.40039C2.01968 17 0.900391 15.8807 0.900391 14.5V11.5C0.900391 11.2239 1.12425 11 1.40039 11C1.67631 11.0003 1.90039 11.224 1.90039 11.5V14.5C1.90039 15.3284 2.57196 16 3.40039 16H16.501C17.329 15.9995 18.001 15.3281 18.001 14.5V11.5C18.001 11.2239 18.2248 11 18.501 11ZM10.0029 0C10.2789 0.000211196 10.5029 0.223988 10.5029 0.5V11.293L12.8311 8.96484C13.0263 8.76978 13.3429 8.76965 13.5381 8.96484C13.7331 9.16006 13.7331 9.47666 13.5381 9.67188L10.3564 12.8535C10.1612 13.0487 9.84469 13.0486 9.64941 12.8535L6.46777 9.67188C6.27251 9.47661 6.27251 9.16011 6.46777 8.96484C6.66305 8.76978 6.97961 8.76965 7.1748 8.96484L9.50293 11.293V0.5C9.50293 0.223858 9.72679 0 10.0029 0Z" fill="currentColor"/>
</svg>
