<svg width="17" height="17" viewBox="0 0 17 17" fill="none" xmlns="http://www.w3.org/2000/svg">
<path d="M4.92969 1.99902C8.75567 -0.208688 13.6475 1.10222 15.8564 4.92773C18.0656 8.75408 16.7541 13.6473 12.9277 15.8564C9.22115 17.9962 4.51487 16.8324 2.21582 13.2793C2.09789 13.0867 2.16181 12.8346 2.35742 12.7217L2.43848 12.6748C2.67446 12.5386 2.97556 12.6208 3.12793 12.8467C5.16503 15.8686 9.22343 16.84 12.4277 14.9902C15.7758 13.0572 16.9232 8.77578 14.9902 5.42773C13.0574 2.08057 8.77735 0.93368 5.42969 2.86523L4.92969 1.99902ZM7.00488 6.33105C7.05171 5.98809 7.43745 5.78748 7.75 5.96777L12.25 8.56641C12.5833 8.75888 12.5833 9.24018 12.25 9.43262L7.75 12.0303C7.43757 12.2107 7.05203 12.0107 7.00488 11.668L7 11.5977V6.40137L7.00488 6.33105ZM8 10.7314L11 8.99902L8 7.26758V10.7314ZM6.42773 4.59766L0.847656 4.93262L3.92773 0.267578L6.42773 4.59766Z" fill="currentColor"/>
</svg>
