<svg width="20" height="20" viewBox="0 0 20 20" fill="none" xmlns="http://www.w3.org/2000/svg">
<path d="M18.1748 0.781982C19.1114 0.573996 19.9999 1.28735 20 2.24683V17.7527C20 18.7122 19.1115 19.4255 18.1748 19.2175L10.3916 17.488L10 17.4011V2.59839L10.3916 2.51147L18.1748 0.781982ZM0 2.28101C8.03786e-05 1.30523 0.91759 0.588304 1.86426 0.824951L8.62109 2.5144C8.88887 2.58135 9.0521 2.85307 8.98535 3.12085C8.9184 3.38867 8.64673 3.55193 8.37891 3.48511L1.62109 1.79565C1.30561 1.71688 1.00008 1.95584 1 2.28101V17.7185C1 18.0438 1.30556 18.2827 1.62109 18.2039L8.37891 16.5144C8.64668 16.4476 8.91835 16.6109 8.98535 16.8787C9.05217 17.1465 8.8889 17.4181 8.62109 17.4851L1.86426 19.1746C0.917537 19.4112 0 18.6944 0 17.7185V2.28101ZM18.3916 1.75854L11 3.40015V16.5984L18.3916 18.241C18.7039 18.3104 19 18.0726 19 17.7527V2.24683C18.9999 1.92703 18.7038 1.68919 18.3916 1.75854ZM5.46875 12.9998H4.46777V11.9988H5.46875V12.9998ZM4.97559 5.71948C5.67542 5.71948 6.23373 5.90995 6.65039 6.29077C7.06702 6.6716 7.27536 7.1323 7.27539 7.67261C7.27539 7.98507 7.20211 8.27322 7.05566 8.53687C6.90919 8.80052 6.62269 9.1212 6.19629 9.49878C5.9099 9.75263 5.72268 9.93986 5.63477 10.0603C5.5469 10.1807 5.48177 10.3191 5.43945 10.4753C5.39714 10.6316 5.37273 10.8856 5.36621 11.2371H4.52148C4.51823 11.1199 4.5166 11.032 4.5166 10.9734C4.51661 10.6284 4.56544 10.3305 4.66309 10.0798C4.7347 9.89107 4.85029 9.70056 5.00977 9.50854C5.12697 9.36857 5.33697 9.16507 5.63965 8.89819C5.9456 8.62804 6.14421 8.41316 6.23535 8.25366C6.32646 8.09418 6.37207 7.91997 6.37207 7.7312C6.37204 7.38946 6.23857 7.08989 5.97168 6.83276C5.70476 6.57239 5.37757 6.44214 4.99023 6.44214C4.61592 6.44214 4.30337 6.55937 4.05273 6.7937C3.8021 7.02806 3.6377 7.39435 3.55957 7.89233L2.65625 7.78491C2.73765 7.11766 2.97854 6.6065 3.37891 6.25171C3.78254 5.89693 4.31481 5.71948 4.97559 5.71948ZM17 8.49976C17.2761 8.49976 17.4999 8.72367 17.5 8.99976C17.5 9.2759 17.2761 9.49976 17 9.49976H13C12.7239 9.49976 12.5 9.2759 12.5 8.99976C12.5001 8.72367 12.7239 8.49976 13 8.49976H17ZM16.9375 5.00366C17.2113 4.96945 17.4615 5.16357 17.4961 5.43726C17.5303 5.7111 17.3362 5.96136 17.0625 5.99585L13.0625 6.49585C12.7887 6.53008 12.5384 6.33601 12.5039 6.06226C12.4698 5.78846 12.6638 5.53814 12.9375 5.50366L16.9375 5.00366Z" fill="currentColor"/>
</svg>
